<?xml version="1.0" standalone="no"?>
<!DOCTYPE svg PUBLIC "-//W3C//DTD SVG 20010904//EN"
 "http://www.w3.org/TR/2001/REC-SVG-20010904/DTD/svg10.dtd">
<svg version="1.0" xmlns="http://www.w3.org/2000/svg"
 width="3912.000000pt" height="2761.000000pt" viewBox="0 0 3912.000000 2761.000000"
 preserveAspectRatio="xMidYMid meet">

<g transform="translate(0.000000,2761.000000) scale(0.100000,-0.100000)"
fill="#000000" stroke="none">
<path d="M19105 24714 c-33 -2 -141 -8 -240 -14 -1286 -78 -2580 -395 -3760
-922 -2732 -1222 -4847 -3509 -5849 -6326 -338 -952 -530 -1894 -608 -2987
-17 -236 -17 -1110 0 -1345 42 -583 103 -1042 207 -1547 363 -1766 1156 -3406
2320 -4798 1771 -2118 4290 -3493 7015 -3829 507 -62 811 -80 1370 -80 559 0
863 18 1370 80 1868 230 3659 953 5175 2088 2145 1605 3623 3929 4160 6539
143 695 210 1312 222 2052 34 2133 -536 4176 -1670 5985 -742 1184 -1740 2246
-2880 3064 -1014 727 -2151 1279 -3342 1622 -743 214 -1461 339 -2320 405
-135 10 -1047 20 -1170 13z m609 -4162 c88 -41 167 -121 209 -209 29 -62 32
-76 31 -163 0 -111 -22 -177 -82 -252 -87 -110 -193 -163 -327 -163 -97 0
-162 21 -239 76 -279 200 -212 613 119 732 78 28 204 19 289 -21z m3501 -372
c112 -54 177 -155 183 -282 4 -66 1 -84 -22 -135 -97 -211 -347 -268 -515
-117 -159 143 -142 393 33 512 65 43 97 52 191 49 61 -2 92 -8 130 -27z
m-7073 -8 c62 -27 134 -95 166 -157 23 -43 27 -62 27 -140 0 -73 -4 -98 -23
-136 -36 -73 -87 -125 -157 -160 -123 -60 -268 -36 -364 60 -129 129 -134 324
-12 454 72 78 148 109 251 103 37 -2 85 -12 112 -24z m6150 -1411 c252 -69
410 -328 357 -583 -28 -134 -139 -282 -256 -342 -200 -101 -433 -65 -589 90
-179 178 -200 449 -49 649 128 170 336 242 537 186z m-5256 -2 c262 -47 448
-308 404 -568 -41 -242 -249 -422 -489 -421 -130 1 -225 34 -325 115 -217 177
-238 517 -44 721 123 131 282 184 454 153z m2673 -416 c180 -46 345 -209 403
-398 26 -82 30 -220 9 -305 -24 -100 -79 -198 -156 -274 -116 -118 -254 -176
-415 -176 -253 0 -465 152 -558 398 -22 57 -25 84 -26 182 -1 144 22 225 94
334 143 213 393 306 649 239z m5572 -991 c164 -79 262 -266 230 -439 -24 -132
-118 -255 -238 -311 -52 -24 -69 -27 -168 -27 -99 0 -116 3 -168 27 -80 37
-170 126 -209 205 -85 172 -21 403 141 512 84 56 142 72 251 68 82 -3 104 -7
161 -35z m-11107 -21 c82 -40 158 -117 199 -200 29 -61 32 -73 32 -171 0 -102
-1 -109 -38 -182 -61 -124 -166 -202 -304 -227 -217 -40 -434 119 -474 347
-35 198 107 411 308 462 21 5 77 8 126 6 74 -3 98 -8 151 -35z m4477 -574
c177 -53 312 -133 437 -259 127 -126 211 -271 264 -454 20 -69 23 -100 22
-254 0 -200 -14 -268 -82 -414 -56 -119 -113 -199 -211 -296 -97 -97 -215
-175 -334 -220 -136 -53 -198 -64 -362 -64 -129 1 -163 4 -245 26 -376 101
-651 389 -737 773 -20 92 -20 297 0 390 46 207 130 360 281 511 116 116 223
186 355 234 138 51 198 60 371 56 132 -3 168 -7 241 -29z m2342 -1 c288 -86
506 -268 632 -529 74 -154 90 -232 89 -437 0 -162 -2 -182 -28 -265 -73 -239
-216 -432 -420 -566 -173 -114 -356 -164 -571 -156 -161 5 -263 30 -400 97
-266 129 -458 360 -537 647 -18 65 -22 106 -22 243 -1 193 15 272 89 429 58
121 114 198 212 292 93 89 141 123 248 176 164 82 267 103 470 99 127 -3 164
-7 238 -30z m2189 -411 c250 -62 438 -304 438 -565 0 -272 -188 -508 -460
-576 -86 -22 -221 -15 -310 16 -184 62 -329 215 -386 405 -28 93 -24 240 8
332 33 93 65 148 128 217 151 164 359 225 582 171z m-6981 -9 c82 -18 188 -70
257 -128 220 -183 273 -498 125 -747 -51 -84 -161 -187 -245 -229 -264 -129
-582 -43 -747 203 -72 108 -96 191 -96 330 0 88 5 123 23 177 42 122 131 239
233 307 135 90 292 120 450 87z m5909 -1591 c332 -71 614 -313 729 -627 48
-130 56 -177 55 -348 -1 -181 -13 -247 -74 -393 -92 -222 -305 -435 -527 -527
-143 -60 -212 -73 -388 -74 -175 0 -231 9 -373 64 -165 64 -352 215 -455 369
-337 501 -159 1182 379 1450 95 47 224 88 319 100 85 12 246 5 335 -14z
m-4684 -9 c296 -63 550 -258 684 -526 78 -156 105 -278 104 -465 -1 -116 -6
-157 -26 -235 -105 -393 -417 -676 -820 -740 -106 -17 -300 -8 -403 19 -100
26 -261 104 -341 164 -71 54 -187 173 -233 240 -50 73 -119 224 -142 312 -30
113 -37 311 -15 428 81 430 423 756 856 817 83 11 247 5 336 -14z m7464 -477
c170 -39 330 -199 369 -369 29 -127 3 -277 -67 -386 -177 -273 -546 -314 -772
-85 -103 104 -150 214 -150 351 0 140 55 264 159 363 69 64 134 102 211 123
56 16 190 17 250 3z m-10425 -24 c95 -25 165 -65 236 -135 226 -226 191 -586
-76 -770 -158 -109 -390 -108 -554 1 -102 68 -184 184 -210 299 -16 67 -13
189 5 251 50 171 188 307 354 351 82 21 169 22 245 3z m12269 -151 c65 -22
157 -109 187 -176 32 -72 33 -192 2 -260 -30 -66 -96 -133 -162 -165 -75 -38
-190 -39 -266 -5 -197 90 -258 348 -120 510 39 44 88 78 144 98 50 18 158 17
215 -2z m-14101 -44 c63 -30 127 -93 157 -155 21 -42 25 -64 25 -140 0 -78 -4
-97 -27 -140 -32 -60 -97 -124 -158 -156 -38 -20 -60 -24 -135 -24 -78 0 -97
4 -140 27 -181 95 -239 323 -123 484 34 48 100 98 155 119 57 22 185 14 246
-15z m5922 -1325 c421 -74 741 -390 821 -812 24 -127 15 -316 -20 -438 -54
-183 -144 -333 -274 -457 -128 -122 -274 -204 -442 -249 -72 -20 -109 -23
-245 -23 -134 0 -174 4 -245 23 -297 80 -521 263 -655 536 -64 129 -93 240
-102 381 -17 280 89 553 293 758 232 231 555 336 869 281z m2446 -18 c176 -53
315 -135 438 -258 488 -488 355 -1292 -264 -1601 -148 -74 -274 -102 -450
-101 -105 1 -149 6 -230 27 -383 99 -676 414 -745 802 -20 113 -9 328 23 434
53 175 124 297 246 424 90 92 167 149 276 203 164 82 267 103 470 99 126 -3
164 -8 236 -29z m2161 -358 c167 -34 331 -164 406 -320 50 -104 66 -184 59
-292 -19 -307 -269 -548 -572 -551 -108 -1 -176 14 -273 61 -141 69 -257 205
-304 358 -28 90 -30 233 -4 320 61 205 229 372 422 419 72 17 195 20 266 5z
m-6929 -24 c168 -44 322 -174 393 -331 145 -326 -45 -718 -392 -809 -148 -38
-334 -8 -461 75 -308 203 -364 622 -118 888 118 128 260 191 425 192 53 0 121
-7 153 -15z m8992 -1351 c205 -53 343 -262 306 -461 -42 -228 -259 -384 -478
-344 -211 39 -354 219 -341 430 7 105 38 179 103 249 111 120 259 166 410 126z
m-11144 -14 c215 -41 364 -231 346 -443 -12 -139 -108 -277 -236 -340 -62 -30
-72 -32 -176 -32 -104 0 -114 2 -177 33 -86 42 -177 137 -209 219 -19 47 -23
77 -24 158 0 92 3 105 32 168 56 117 175 213 293 236 63 12 90 12 151 1z
m5649 -652 c173 -63 312 -213 366 -393 27 -89 24 -249 -5 -335 -55 -158 -161
-281 -303 -348 -98 -47 -161 -62 -266 -62 -162 0 -288 54 -407 174 -129 129
-182 264 -172 441 12 246 177 460 410 535 102 32 270 27 377 -12z m2604 -568
c85 -29 140 -64 205 -130 100 -101 148 -232 139 -376 -19 -291 -293 -512 -575
-465 -332 57 -521 408 -379 706 110 234 372 348 610 265z m-5239 -2 c120 -31
264 -148 318 -261 100 -208 55 -437 -116 -594 -70 -64 -138 -98 -240 -120
-256 -55 -520 117 -582 378 -86 366 251 691 620 597z m6140 -1777 c153 -67
234 -258 175 -413 -30 -80 -94 -148 -172 -183 -160 -72 -348 -4 -425 153 -37
76 -40 201 -6 274 41 90 130 164 227 189 47 12 151 2 201 -20z m-7060 -20
c119 -56 188 -162 189 -291 0 -92 -22 -148 -90 -220 -128 -137 -333 -141 -464
-10 -96 96 -124 246 -67 362 33 68 119 150 179 171 24 9 77 16 118 16 63 1 85
-4 135 -28z m3530 -210 c125 -62 210 -175 236 -312 48 -264 -206 -517 -471
-471 -203 36 -350 205 -350 402 0 144 66 268 189 352 71 50 142 69 242 65 74
-3 96 -8 154 -36z"/>
</g>
</svg>
